<?xml version="1.0" encoding="UTF-8" standalone="no"?>
<svg width="69px" height="79px" viewBox="0 0 69 79" version="1.1" xmlns="http://www.w3.org/2000/svg"
     xmlns:xlink="http://www.w3.org/1999/xlink" xmlns:sketch="http://www.bohemiancoding.com/sketch/ns">
    <!-- Generator: Sketch 3.4.4 (17249) - http://www.bohemiancoding.com/sketch -->
    <title>logo-mark</title>
    <desc>Created with Sketch.</desc>
    <defs></defs>
    <g id="Splash,-Sign-Up" stroke="none" stroke-width="1" fill="none" fill-rule="evenodd" sketch:type="MSPage">
        <g id="7-Confirm-Code-B---Full" sketch:type="MSArtboardGroup" transform="translate(-153.000000, -102.000000)"
           fill="#FE5C6C">
            <g id="logo-mark" sketch:type="MSLayerGroup" transform="translate(153.000000, 102.000000)">
                <path
                    d="M32.32,13.7162379 L32.32,20.9540514 L34.13703,22.0026624 L35.9536967,20.9540514 L35.9536967,13.7162379 C35.9536967,12.713045 35.1401933,11.8995177 34.13703,11.8995177 C33.1335033,11.8995177 32.32,12.713045 32.32,13.7162379"
                    id="Fill-1" sketch:type="MSShapeGroup"></path>
                <path
                    d="M68.12759,58.8421158 L68.12759,19.5918746 L54.9992667,12.011791 L54.9959967,12.0139711 L53.0743267,10.9046817 C52.20487,10.4029035 51.0945233,10.701209 50.59276,11.5696013 C50.0909967,12.4387203 50.38893,13.549463 51.25766,14.0512412 L59.0079233,18.5261865 C59.02391,18.5352701 59.0406233,18.5410836 59.0569733,18.5498039 L62.67759,20.6404855 L34.1366667,37.1192283 L5.59574333,20.6404855 L11.1987067,17.4056334 L11.1994333,17.4052701 L17.78485,13.6028746 C18.6539433,13.1010965 18.9515133,11.9903537 18.4501133,11.1212347 C17.94835,10.2524791 16.8380033,9.95417363 15.9685467,10.4563151 L12.3944367,12.519746 L12.3940733,12.519746 L0.145743333,19.5918746 L0.145743333,58.8421158 L34.1366667,78.467418 L68.12759,58.8421158 L68.12759,58.8421158 Z M35.9533333,40.2657878 L64.4942567,23.787045 L64.4942567,56.7445305 L35.9533333,73.2232733 L35.9533333,40.2657878 L35.9533333,40.2657878 Z"
                    id="Fill-2" sketch:type="MSShapeGroup"></path>
                <path
                    d="M54.5708967,48.7269807 L49.3465267,51.743463 C48.58498,52.1831093 48.3339167,53.1586881 48.7884467,53.911537 C48.7884467,53.911537 49.7516433,55.506254 51.9588933,54.2320064 C54.1661433,52.9577588 55.4196433,49.4340482 55.4196433,49.4340482 C55.7143067,48.6056238 55.3324433,48.2873344 54.5708967,48.7269807"
                    id="Fill-3" sketch:type="MSShapeGroup"></path>
                <path
                    d="M45.5257133,46.4052122 C44.1766567,47.1842219 43.6988733,48.0413505 43.6988733,49.121209 C43.6988733,50.2214148 44.1766567,50.5066399 45.5257133,49.7276302 C46.8133667,48.9842283 47.3322067,48.1234662 47.3322067,47.0232605 C47.3322067,45.9434019 46.8133667,45.6618103 45.5257133,46.4052122"
                    id="Fill-4" sketch:type="MSShapeGroup"></path>
                <path
                    d="M56.1804633,40.2530707 C54.8310433,41.031717 54.3536233,41.8888457 54.3536233,42.9683408 C54.3536233,44.06891 54.8310433,44.354135 56.1804633,43.5754887 C57.4677533,42.8317235 57.9869567,41.9709614 57.9869567,40.8707556 C57.9869567,39.7908971 57.4677533,39.5096688 56.1804633,40.2530707"
                    id="Fill-5" sketch:type="MSShapeGroup"></path>
                <path
                    d="M37.7311233,10.4926495 C37.98364,10.9290257 38.44144,11.1731929 38.9119567,11.1731929 C39.1434,11.1731929 39.3781133,11.1139678 39.5928433,10.9897042 C40.2443,10.6129164 40.4670233,9.77940514 40.0898833,9.12792926 C38.8748967,7.0274373 36.6142367,5.72266881 34.1897133,5.72266881 C31.76628,5.72266881 29.5052567,7.02707395 28.29027,9.12683923 C27.91313,9.77831511 28.13549,10.6118264 28.7869467,10.9886141 C29.4384033,11.3668553 30.27189,11.1433987 30.6486667,10.4919228 C31.37824,9.23111897 32.73529,8.4477492 34.1897133,8.4477492 C35.6445,8.4477492 37.00155,9.23111897 37.7311233,10.4926495"
                    id="Fill-6" sketch:type="MSShapeGroup"></path>
                <path
                    d="M24.3201267,7.70725402 C24.94942,8.11964952 25.79417,7.94342765 26.2065533,7.3144791 C27.97853,4.61119936 30.96295,2.99758842 34.1897133,2.99758842 C37.5839733,2.99758842 40.7493333,4.82484566 42.45155,7.76611576 C42.7040667,8.20285531 43.1615033,8.44665916 43.63202,8.44665916 C43.8634633,8.44665916 44.0981767,8.38743408 44.31327,8.26353376 C44.9643633,7.88601929 45.1870867,7.05250804 44.81031,6.4013955 C42.62268,2.62080064 38.5533467,0.272508039 34.1897133,0.272508039 C30.0415367,0.272508039 26.2051,2.34647588 23.9277267,5.82040836 C23.5153433,6.4500836 23.6908333,7.29449518 24.3201267,7.70725402"
                    id="Fill-7" sketch:type="MSShapeGroup"></path>
            </g>
        </g>
    </g>
</svg>